<svg width="622" height="264" viewBox="0 0 622 264" fill="none" xmlns="http://www.w3.org/2000/svg">
<g clip-path="url(#clip0_0_3)" filter="url(#filter0_d_0_3)">
<mask id="mask0_0_3" style="mask-type:luminance" maskUnits="userSpaceOnUse" x="4" y="0" width="614" height="256">
<path d="M618 0H4V256H618V0Z" fill="white"/>
</mask>
<g mask="url(#mask0_0_3)">
<path d="M474.094 0H147.906C68.429 0 4 26.8629 4 60V196C4 229.137 68.429 256 147.906 256H474.094C553.571 256 618 229.137 618 196V60C618 26.8629 553.571 0 474.094 0Z" fill="#5865F2"/>
<mask id="mask1_0_3" style="mask-type:luminance" maskUnits="userSpaceOnUse" x="62" y="51" width="200" height="155">
<path d="M262 51H62V205.93H262V51Z" fill="white"/>
</mask>
<g mask="url(#mask1_0_3)">
<path d="M231.308 64.7966C218.561 58.9476 204.892 54.6383 190.599 52.1701C190.339 52.1225 190.079 52.2415 189.945 52.4796C188.187 55.6064 186.239 59.6856 184.876 62.8918C169.503 60.5904 154.21 60.5904 139.153 62.8918C137.789 59.6143 135.771 55.6064 134.005 52.4796C133.871 52.2495 133.611 52.1305 133.35 52.1701C119.066 54.6304 105.396 58.9397 92.6411 64.7966C92.5307 64.8442 92.4361 64.9236 92.3732 65.0267C66.4449 103.763 59.3421 141.547 62.8265 178.863C62.8423 179.046 62.9447 179.22 63.0867 179.331C80.1934 191.894 96.7642 199.521 113.027 204.576C113.288 204.655 113.563 204.56 113.729 204.346C117.576 199.092 121.005 193.553 123.946 187.728C124.119 187.386 123.953 186.982 123.599 186.847C118.159 184.783 112.98 182.268 107.998 179.411C107.604 179.181 107.572 178.617 107.935 178.347C108.983 177.561 110.032 176.744 111.033 175.919C111.214 175.768 111.466 175.736 111.679 175.831C144.411 190.775 179.846 190.775 212.191 175.831C212.404 175.728 212.657 175.76 212.846 175.911C213.847 176.736 214.895 177.561 215.952 178.347C216.314 178.617 216.291 179.181 215.897 179.411C210.914 182.323 205.735 184.783 200.288 186.839C199.933 186.974 199.775 187.386 199.949 187.728C202.952 193.545 206.381 199.084 210.157 204.338C210.315 204.56 210.599 204.655 210.859 204.576C227.201 199.521 243.772 191.894 260.879 179.331C261.028 179.22 261.123 179.053 261.139 178.871C265.309 135.73 254.154 98.2554 231.568 65.0346C231.513 64.9236 231.419 64.8442 231.308 64.7966ZM128.834 156.142C118.979 156.142 110.859 147.095 110.859 135.984C110.859 124.873 118.822 115.826 128.834 115.826C138.924 115.826 146.965 124.953 146.807 135.984C146.807 147.095 138.845 156.142 128.834 156.142ZM195.29 156.142C185.435 156.142 177.316 147.095 177.316 135.984C177.316 124.873 185.278 115.826 195.29 115.826C205.38 115.826 213.421 124.953 213.264 135.984C213.264 147.095 205.38 156.142 195.29 156.142Z" fill="white"/>
</g>
<path d="M348.266 116.406L362.211 96.6016H379.73L358.461 127.715L380.492 160H362.914L348.324 139.258L333.852 160H316.215L338.246 127.715L317.035 96.6016H334.555L348.266 116.406ZM446.879 127.539C446.879 133.047 446.234 137.91 444.945 142.129C443.695 146.309 441.879 149.805 439.496 152.617C437.113 155.469 434.203 157.617 430.766 159.062C427.328 160.508 423.461 161.23 419.164 161.23C414.906 161.23 411.059 160.508 407.621 159.062C404.184 157.617 401.273 155.469 398.891 152.617C396.469 149.805 394.594 146.309 393.266 142.129C391.977 137.91 391.332 133.047 391.332 127.539V107.148C391.332 101.641 391.977 96.7969 393.266 92.6172C394.555 88.3984 396.41 84.8633 398.832 82.0117C401.215 79.1992 404.105 77.0703 407.504 75.625C410.941 74.1797 414.789 73.457 419.047 73.457C423.344 73.457 427.211 74.1797 430.648 75.625C434.086 77.0703 437.016 79.1992 439.438 82.0117C441.82 84.8633 443.656 88.3984 444.945 92.6172C446.234 96.7969 446.879 101.641 446.879 107.148V127.539ZM407.738 120.508L430.473 103.574C430.395 100.371 430.043 97.6367 429.418 95.3711C428.832 93.0664 427.953 91.2305 426.781 89.8633C425.883 88.7695 424.77 87.9688 423.441 87.4609C422.152 86.9141 420.688 86.6406 419.047 86.6406C417.211 86.6406 415.59 86.9922 414.184 87.6953C412.816 88.3594 411.664 89.375 410.727 90.7422C409.711 92.1875 408.949 94.0625 408.441 96.3672C407.973 98.6719 407.738 101.406 407.738 104.57V114.004C407.738 115.879 407.738 117.129 407.738 117.754C407.738 118.379 407.738 119.297 407.738 120.508ZM430.473 130V120.098C430.473 118.809 430.473 117.871 430.473 117.285C430.473 116.66 430.473 115.781 430.473 114.648L407.738 131.523C407.816 134.102 408.07 136.387 408.5 138.379C408.969 140.371 409.613 142.031 410.434 143.359C411.371 144.961 412.562 146.152 414.008 146.934C415.453 147.715 417.172 148.105 419.164 148.105C421 148.105 422.621 147.773 424.027 147.109C425.434 146.406 426.605 145.352 427.543 143.945C428.52 142.461 429.242 140.566 429.711 138.262C430.219 135.918 430.473 133.164 430.473 130ZM484.32 146.934H521.645V160H462.055V149.922L497.562 109.844H462.875V96.6016H520.18V106.387L484.32 146.934Z" fill="white"/>
</g>
<rect x="311" y="68" width="223" height="96" fill="#5865F2"/>
<path d="M281.22 156V101.455H291.474V147.451H315.364V156H281.22ZM323.701 156V101.455H359.469V110.004H333.955V124.413H357.632V132.989H333.955V147.451H359.656V156H323.701ZM414.341 101.455V156H405.312L380.037 119.459H379.584V156H369.331V101.455H378.492L403.661 137.996H404.167V101.455H414.341ZM473.834 128.727C473.834 134.622 472.733 139.665 470.531 143.855C468.33 148.028 465.329 151.224 461.529 153.443C457.729 155.645 453.441 156.746 448.665 156.746C443.871 156.746 439.574 155.636 435.775 153.417C431.993 151.197 429.001 148.001 426.799 143.828C424.597 139.638 423.496 134.604 423.496 128.727C423.496 122.832 424.597 117.799 426.799 113.626C429.001 109.436 431.993 106.24 435.775 104.038C439.574 101.819 443.871 100.709 448.665 100.709C453.441 100.709 457.729 101.819 461.529 104.038C465.329 106.24 468.33 109.436 470.531 113.626C472.733 117.799 473.834 122.832 473.834 128.727ZM463.527 128.727C463.527 124.643 462.896 121.208 461.636 118.42C460.375 115.615 458.626 113.493 456.389 112.055C454.169 110.599 451.595 109.871 448.665 109.871C445.753 109.871 443.179 110.599 440.941 112.055C438.704 113.493 436.955 115.615 435.695 118.42C434.452 121.208 433.83 124.643 433.83 128.727C433.83 132.811 434.452 136.256 435.695 139.061C436.955 141.849 438.704 143.971 440.941 145.426C443.179 146.865 445.753 147.584 448.665 147.584C451.595 147.584 454.169 146.865 456.389 145.426C458.626 143.971 460.375 141.849 461.636 139.061C462.896 136.256 463.527 132.811 463.527 128.727ZM483.002 156V101.455H503.723C507.878 101.455 511.394 102.183 514.27 103.638C517.147 105.094 519.322 107.145 520.795 109.791C522.269 112.419 523.006 115.482 523.006 118.979C523.006 122.513 522.251 125.567 520.742 128.141C519.251 130.698 517.058 132.678 514.164 134.081C511.269 135.466 507.727 136.158 503.537 136.158H488.995V127.742H502.099C504.496 127.742 506.458 127.413 507.985 126.756C509.529 126.082 510.675 125.096 511.42 123.8C512.166 122.486 512.539 120.879 512.539 118.979C512.539 117.08 512.166 115.455 511.42 114.105C510.675 112.756 509.521 111.726 507.958 111.016C506.413 110.306 504.442 109.951 502.045 109.951H493.256V156H483.002ZM511.474 131.257L525.003 156H513.604L500.341 131.257H511.474ZM542.182 101.455V156H531.928V101.455H542.182ZM601.715 128.727C601.715 134.622 600.614 139.665 598.412 143.855C596.21 148.028 593.21 151.224 589.41 153.443C585.61 155.645 581.322 156.746 576.546 156.746C571.752 156.746 567.455 155.636 563.655 153.417C559.873 151.197 556.882 148.001 554.68 143.828C552.478 139.638 551.377 134.604 551.377 128.727C551.377 122.832 552.478 117.799 554.68 113.626C556.882 109.436 559.873 106.24 563.655 104.038C567.455 101.819 571.752 100.709 576.546 100.709C581.322 100.709 585.61 101.819 589.41 104.038C593.21 106.24 596.21 109.436 598.412 113.626C600.614 117.799 601.715 122.832 601.715 128.727ZM591.407 128.727C591.407 124.643 590.777 121.208 589.517 118.42C588.256 115.615 586.507 113.493 584.27 112.055C582.05 110.599 579.476 109.871 576.546 109.871C573.634 109.871 571.059 110.599 568.822 112.055C566.585 113.493 564.836 115.615 563.575 118.42C562.333 121.208 561.711 124.643 561.711 128.727C561.711 132.811 562.333 136.256 563.575 139.061C564.836 141.849 566.585 143.971 568.822 145.426C571.059 146.865 573.634 147.584 576.546 147.584C579.476 147.584 582.05 146.865 584.27 145.426C586.507 143.971 588.256 141.849 589.517 139.061C590.777 136.256 591.407 132.811 591.407 128.727Z" fill="white"/>
</g>
<defs>
<filter id="filter0_d_0_3" x="0" y="0" width="622" height="264" filterUnits="userSpaceOnUse" color-interpolation-filters="sRGB">
<feFlood flood-opacity="0" result="BackgroundImageFix"/>
<feColorMatrix in="SourceAlpha" type="matrix" values="0 0 0 0 0 0 0 0 0 0 0 0 0 0 0 0 0 0 127 0" result="hardAlpha"/>
<feOffset dy="4"/>
<feGaussianBlur stdDeviation="2"/>
<feComposite in2="hardAlpha" operator="out"/>
<feColorMatrix type="matrix" values="0 0 0 0 0 0 0 0 0 0 0 0 0 0 0 0 0 0 0.25 0"/>
<feBlend mode="normal" in2="BackgroundImageFix" result="effect1_dropShadow_0_3"/>
<feBlend mode="normal" in="SourceGraphic" in2="effect1_dropShadow_0_3" result="shape"/>
</filter>
<clipPath id="clip0_0_3">
<rect width="614" height="256" fill="white" transform="translate(4)"/>
</clipPath>
</defs>
</svg>
